# Blender v2.81 (sub 16) OBJ File: 'color_box.blend'
# www.blender.org
mtllib color_box.mtl
o Cylinder
v 1.000000 1.000000 -1.000000
v 1.000000 -1.000000 -1.000000
v 1.000000 1.000000 1.000000
v 1.000000 -1.000000 1.000000
v -1.000000 1.000000 -1.000000
v -1.000000 -1.000000 -1.000000
v -1.000000 1.000000 1.000000
v -1.000000 -1.000000 1.000000
vt 1.000000 0.000000
vt 0.000000 1.000000
vt 0.000000 0.000000
vt 1.000000 1.000000
vt 1.000000 0.000000
vt 0.000000 1.000000
vt 0.000000 0.000000
vt 1.000000 1.000000
vt 0.000000 1.000000
vt 0.000000 0.000000
vt 1.000000 1.000000
vt 1.000000 0.000000
vt 0.000000 1.000000
vt 1.000000 1.000000
vt 1.000000 0.000000
vt 0.000000 0.000000
vt 1.000000 0.000000
vt 0.000000 1.000000
vt 0.000000 0.000000
vt 1.000000 1.000000
vn -1.0000 0.0000 0.0000
vn 0.0000 1.0000 0.0000
vn 0.0000 0.0000 -1.0000
vn 0.0000 -1.0000 0.0000
vn 0.0000 0.0000 1.0000
vn 1.0000 0.0000 0.0000
usemtl red
s off
f 7/1/1 6/2/1 8/3/1
f 7/1/1 5/4/1 6/2/1
usemtl blue
f 5/5/2 3/6/2 1/7/2
f 5/5/2 7/8/2 3/6/2
usemtl yellow
f 5/5/3 2/9/3 6/10/3
f 5/5/3 1/11/3 2/9/3
usemtl green
f 2/12/4 8/13/4 6/10/4
f 2/12/4 4/14/4 8/13/4
usemtl black
f 3/15/5 8/13/5 4/16/5
f 3/15/5 7/8/5 8/13/5
usemtl purple
f 1/17/6 4/18/6 2/19/6
f 1/17/6 3/20/6 4/18/6
